<mxfile host="app.diagrams.net" modified="2024-06-27T12:58:50.428Z" agent="Mozilla/5.0 (Windows NT 10.0; Win64; x64) AppleWebKit/537.36 (KHTML, like Gecko) Chrome/126.0.0.0 Safari/537.36" etag="5LpO2R8au-Gf1M2GhUFK" version="24.6.3" type="device">
  <diagram name="Seite-1" id="QrN93T71BmKffDnM82SS">
    <mxGraphModel dx="1841" dy="990" grid="1" gridSize="10" guides="1" tooltips="1" connect="1" arrows="1" fold="1" page="1" pageScale="1" pageWidth="827" pageHeight="1169" math="0" shadow="0">
      <root>
        <mxCell id="0" />
        <mxCell id="1" parent="0" />
        <mxCell id="k9E_kX_1ccM2fNHI3GOr-1" value="User" style="swimlane;fontStyle=1;align=center;verticalAlign=top;childLayout=stackLayout;horizontal=1;startSize=26;horizontalStack=0;resizeParent=1;resizeParentMax=0;resizeLast=0;collapsible=1;marginBottom=0;whiteSpace=wrap;html=1;" parent="1" vertex="1">
          <mxGeometry x="105" y="209" width="260" height="170" as="geometry" />
        </mxCell>
        <mxCell id="k9E_kX_1ccM2fNHI3GOr-2" value="- user_id : int&lt;div&gt;- user_name : string&lt;/div&gt;&lt;div&gt;- balance : int&lt;/div&gt;&lt;div&gt;- inventory : Array&amp;lt;Tupel&amp;lt;Product, count: int&amp;gt;&amp;gt;&amp;nbsp;&lt;/div&gt;&lt;div&gt;&lt;br&gt;&lt;/div&gt;" style="text;strokeColor=none;fillColor=none;align=left;verticalAlign=top;spacingLeft=4;spacingRight=4;overflow=hidden;rotatable=0;points=[[0,0.5],[1,0.5]];portConstraint=eastwest;whiteSpace=wrap;html=1;" parent="k9E_kX_1ccM2fNHI3GOr-1" vertex="1">
          <mxGeometry y="26" width="260" height="84" as="geometry" />
        </mxCell>
        <mxCell id="k9E_kX_1ccM2fNHI3GOr-3" value="" style="line;strokeWidth=1;fillColor=none;align=left;verticalAlign=middle;spacingTop=-1;spacingLeft=3;spacingRight=3;rotatable=0;labelPosition=right;points=[];portConstraint=eastwest;strokeColor=inherit;" parent="k9E_kX_1ccM2fNHI3GOr-1" vertex="1">
          <mxGeometry y="110" width="260" height="8" as="geometry" />
        </mxCell>
        <mxCell id="k9E_kX_1ccM2fNHI3GOr-4" value="+ buyProduct(product:Product, count:int)&lt;div&gt;+ sellProduct(product:Product, count:int)&lt;/div&gt;" style="text;strokeColor=none;fillColor=none;align=left;verticalAlign=top;spacingLeft=4;spacingRight=4;overflow=hidden;rotatable=0;points=[[0,0.5],[1,0.5]];portConstraint=eastwest;whiteSpace=wrap;html=1;" parent="k9E_kX_1ccM2fNHI3GOr-1" vertex="1">
          <mxGeometry y="118" width="260" height="52" as="geometry" />
        </mxCell>
        <mxCell id="k9E_kX_1ccM2fNHI3GOr-5" value="Product" style="swimlane;fontStyle=1;align=center;verticalAlign=top;childLayout=stackLayout;horizontal=1;startSize=26;horizontalStack=0;resizeParent=1;resizeParentMax=0;resizeLast=0;collapsible=1;marginBottom=0;whiteSpace=wrap;html=1;" parent="1" vertex="1">
          <mxGeometry x="630" y="250" width="160" height="88" as="geometry" />
        </mxCell>
        <mxCell id="k9E_kX_1ccM2fNHI3GOr-6" value="+ product_id = int&lt;div&gt;+ product_name = string&lt;/div&gt;&lt;div&gt;+ price : int&lt;/div&gt;" style="text;strokeColor=none;fillColor=none;align=left;verticalAlign=top;spacingLeft=4;spacingRight=4;overflow=hidden;rotatable=0;points=[[0,0.5],[1,0.5]];portConstraint=eastwest;whiteSpace=wrap;html=1;" parent="k9E_kX_1ccM2fNHI3GOr-5" vertex="1">
          <mxGeometry y="26" width="160" height="54" as="geometry" />
        </mxCell>
        <mxCell id="k9E_kX_1ccM2fNHI3GOr-7" value="" style="line;strokeWidth=1;fillColor=none;align=left;verticalAlign=middle;spacingTop=-1;spacingLeft=3;spacingRight=3;rotatable=0;labelPosition=right;points=[];portConstraint=eastwest;strokeColor=inherit;" parent="k9E_kX_1ccM2fNHI3GOr-5" vertex="1">
          <mxGeometry y="80" width="160" height="8" as="geometry" />
        </mxCell>
        <mxCell id="k9E_kX_1ccM2fNHI3GOr-24" style="edgeStyle=orthogonalEdgeStyle;rounded=0;orthogonalLoop=1;jettySize=auto;html=1;" parent="1" source="k9E_kX_1ccM2fNHI3GOr-18" target="k9E_kX_1ccM2fNHI3GOr-22" edge="1">
          <mxGeometry relative="1" as="geometry" />
        </mxCell>
        <mxCell id="k9E_kX_1ccM2fNHI3GOr-18" value="dbConnector" style="swimlane;fontStyle=1;align=center;verticalAlign=top;childLayout=stackLayout;horizontal=1;startSize=26;horizontalStack=0;resizeParent=1;resizeParentMax=0;resizeLast=0;collapsible=1;marginBottom=0;whiteSpace=wrap;html=1;" parent="1" vertex="1">
          <mxGeometry x="30" y="678" width="410" height="240" as="geometry" />
        </mxCell>
        <mxCell id="k9E_kX_1ccM2fNHI3GOr-19" value="- db: sqlite::Database" style="text;strokeColor=none;fillColor=none;align=left;verticalAlign=top;spacingLeft=4;spacingRight=4;overflow=hidden;rotatable=0;points=[[0,0.5],[1,0.5]];portConstraint=eastwest;whiteSpace=wrap;html=1;" parent="k9E_kX_1ccM2fNHI3GOr-18" vertex="1">
          <mxGeometry y="26" width="410" height="26" as="geometry" />
        </mxCell>
        <mxCell id="k9E_kX_1ccM2fNHI3GOr-20" value="" style="line;strokeWidth=1;fillColor=none;align=left;verticalAlign=middle;spacingTop=-1;spacingLeft=3;spacingRight=3;rotatable=0;labelPosition=right;points=[];portConstraint=eastwest;strokeColor=inherit;" parent="k9E_kX_1ccM2fNHI3GOr-18" vertex="1">
          <mxGeometry y="52" width="410" height="8" as="geometry" />
        </mxCell>
        <mxCell id="k9E_kX_1ccM2fNHI3GOr-21" value="&lt;div&gt;&lt;span style=&quot;background-color: initial;&quot;&gt;+ getUser(token:str):User&lt;/span&gt;&lt;br&gt;&lt;/div&gt;+ getUser(user_id : int): User&lt;div&gt;+ getProduct(product_id : int) : Product&lt;/div&gt;&lt;div&gt;+ registerUser(user_name:string, password:string)&lt;/div&gt;&lt;div&gt;+ authenticateUser(user_name:string, password:string) :string&lt;/div&gt;&lt;div&gt;+ logoutUser(user_name:string, token:str)&lt;/div&gt;&lt;div&gt;&lt;br&gt;&lt;/div&gt;" style="text;strokeColor=none;fillColor=none;align=left;verticalAlign=top;spacingLeft=4;spacingRight=4;overflow=hidden;rotatable=0;points=[[0,0.5],[1,0.5]];portConstraint=eastwest;whiteSpace=wrap;html=1;" parent="k9E_kX_1ccM2fNHI3GOr-18" vertex="1">
          <mxGeometry y="60" width="410" height="180" as="geometry" />
        </mxCell>
        <mxCell id="k9E_kX_1ccM2fNHI3GOr-22" value="Database" style="shape=cylinder3;whiteSpace=wrap;html=1;boundedLbl=1;backgroundOutline=1;size=15;" parent="1" vertex="1">
          <mxGeometry x="680" y="723" width="110" height="150" as="geometry" />
        </mxCell>
        <mxCell id="k9E_kX_1ccM2fNHI3GOr-30" value="MarketPlace" style="swimlane;fontStyle=1;align=center;verticalAlign=top;childLayout=stackLayout;horizontal=1;startSize=26;horizontalStack=0;resizeParent=1;resizeParentMax=0;resizeLast=0;collapsible=1;marginBottom=0;whiteSpace=wrap;html=1;" parent="1" vertex="1">
          <mxGeometry x="410" y="410" width="250" height="150" as="geometry" />
        </mxCell>
        <mxCell id="k9E_kX_1ccM2fNHI3GOr-31" value="- supply : Array&amp;lt;Tupel&amp;lt;Product, count: int&amp;gt;&amp;gt;&amp;nbsp;" style="text;strokeColor=none;fillColor=none;align=left;verticalAlign=top;spacingLeft=4;spacingRight=4;overflow=hidden;rotatable=0;points=[[0,0.5],[1,0.5]];portConstraint=eastwest;whiteSpace=wrap;html=1;" parent="k9E_kX_1ccM2fNHI3GOr-30" vertex="1">
          <mxGeometry y="26" width="250" height="54" as="geometry" />
        </mxCell>
        <mxCell id="k9E_kX_1ccM2fNHI3GOr-32" value="" style="line;strokeWidth=1;fillColor=none;align=left;verticalAlign=middle;spacingTop=-1;spacingLeft=3;spacingRight=3;rotatable=0;labelPosition=right;points=[];portConstraint=eastwest;strokeColor=inherit;" parent="k9E_kX_1ccM2fNHI3GOr-30" vertex="1">
          <mxGeometry y="80" width="250" height="8" as="geometry" />
        </mxCell>
        <mxCell id="k9E_kX_1ccM2fNHI3GOr-34" value="+ AddProduct(product:Product, amount,int)" style="text;strokeColor=none;fillColor=none;align=left;verticalAlign=top;spacingLeft=4;spacingRight=4;overflow=hidden;rotatable=0;points=[[0,0.5],[1,0.5]];portConstraint=eastwest;whiteSpace=wrap;html=1;" parent="k9E_kX_1ccM2fNHI3GOr-30" vertex="1">
          <mxGeometry y="88" width="250" height="62" as="geometry" />
        </mxCell>
        <mxCell id="k9E_kX_1ccM2fNHI3GOr-36" value="" style="endArrow=diamondThin;endFill=0;endSize=24;html=1;rounded=0;" parent="1" source="k9E_kX_1ccM2fNHI3GOr-1" target="k9E_kX_1ccM2fNHI3GOr-5" edge="1">
          <mxGeometry width="160" relative="1" as="geometry">
            <mxPoint x="330" y="560" as="sourcePoint" />
            <mxPoint x="490" y="560" as="targetPoint" />
          </mxGeometry>
        </mxCell>
        <mxCell id="k9E_kX_1ccM2fNHI3GOr-38" value="" style="endArrow=diamondThin;endFill=0;endSize=24;html=1;rounded=0;" parent="1" source="k9E_kX_1ccM2fNHI3GOr-30" target="k9E_kX_1ccM2fNHI3GOr-5" edge="1">
          <mxGeometry width="160" relative="1" as="geometry">
            <mxPoint x="440" y="334" as="sourcePoint" />
            <mxPoint x="630" y="390" as="targetPoint" />
          </mxGeometry>
        </mxCell>
        <mxCell id="k9E_kX_1ccM2fNHI3GOr-39" value="Use" style="endArrow=open;endSize=12;dashed=1;html=1;rounded=0;" parent="1" source="k9E_kX_1ccM2fNHI3GOr-30" target="k9E_kX_1ccM2fNHI3GOr-18" edge="1">
          <mxGeometry width="160" relative="1" as="geometry">
            <mxPoint x="210" y="510" as="sourcePoint" />
            <mxPoint x="370" y="510" as="targetPoint" />
          </mxGeometry>
        </mxCell>
        <mxCell id="k9E_kX_1ccM2fNHI3GOr-40" value="Use" style="endArrow=open;endSize=12;dashed=1;html=1;rounded=0;" parent="1" source="k9E_kX_1ccM2fNHI3GOr-1" target="k9E_kX_1ccM2fNHI3GOr-18" edge="1">
          <mxGeometry width="160" relative="1" as="geometry">
            <mxPoint x="210" y="510" as="sourcePoint" />
            <mxPoint x="370" y="510" as="targetPoint" />
          </mxGeometry>
        </mxCell>
      </root>
    </mxGraphModel>
  </diagram>
</mxfile>
